<svg width="624" height="96" viewBox="0 0 624 96" xmlns="http://www.w3.org/2000/svg">
<path d="M475.133 60.2324C475.133 66.1202 476.669 70.6851 479.741 73.9277C482.898 77.085 487.378 78.664 493.181 78.6641C498.983 78.6641 503.421 77.0851 506.493 73.9277C509.565 70.6852 511.101 66.1201 511.101 60.2324V1.99219H530.557V60.2324C530.557 67.3149 529.021 73.5015 525.949 78.792C522.963 83.9972 518.653 88.0082 513.021 90.8242C507.389 93.6402 500.775 95.0479 493.181 95.0479C485.501 95.0478 478.845 93.6402 473.213 90.8242C467.666 88.0082 463.357 83.9973 460.285 78.792C457.213 73.5014 455.677 67.3149 455.677 60.2324V1.99219H475.133V60.2324ZM305.5 0C331.734 0 353 21.2665 353 47.5C353 73.7336 331.734 95 305.5 95C279.267 94.9996 258 73.7334 258 47.5C258 21.2667 279.267 0.000360827 305.5 0ZM89.0078 93H68.7842L62.1279 73.6719H27.1836L20.5283 93H0.431641L33.2002 2.12012H56.2402L89.0078 93ZM160.954 18.5039H117.178V39.3682H159.418V55.4961H117.178V76.6162H161.978V93H97.7217V2.12012H160.954V18.5039ZM216.78 2.12012C223.436 2.12015 229.196 3.22969 234.06 5.44824C239.009 7.66691 242.807 10.8239 245.452 14.9199C248.097 18.9306 249.42 23.7093 249.42 29.2559C249.42 33.437 248.524 37.149 246.732 40.3916C245.026 43.6342 242.636 46.2801 239.564 48.3281C237.671 49.6263 235.589 50.6139 233.318 51.2949C237.208 51.8098 240.314 53.0393 242.636 54.9844C245.793 57.5443 247.585 61.5119 248.012 66.8877L250.316 93H230.476L228.812 69.96C228.556 66.4615 227.447 63.9016 225.484 62.2803C223.607 60.5736 220.364 59.7197 215.756 59.7197H196.428V93H176.972V2.12012H216.78ZM382.928 39.1123H417.36V2.12012H436.816V93H417.36V55.4961H382.928V93H363.472V2.12012H382.928V39.1123ZM584.8 2.12012C596.064 2.12012 604.683 4.12508 610.656 8.13574C616.63 12.0611 619.616 18.2909 619.616 26.8242C619.616 30.5788 618.847 33.8638 617.312 36.6797C615.776 39.4103 613.515 41.5867 610.528 43.208C607.954 44.6464 604.876 45.5788 601.295 46.0098C608.211 46.6884 613.549 48.8698 617.312 52.5518C621.408 56.3918 623.456 61.5121 623.456 67.9121C623.456 76.3601 620.469 82.6751 614.496 86.8564C608.608 90.9523 600.16 93 589.152 93H549.472V2.12012H584.8ZM305.5 17C288.656 17.0004 275 30.6555 275 47.5C275 64.3446 288.656 77.9996 305.5 78C322.345 78 336 64.3448 336 47.5C336 30.6553 322.345 17 305.5 17ZM568.928 77.1279H588.256C592.949 77.1279 596.704 76.1888 599.52 74.3115C602.421 72.3489 603.872 69.4482 603.872 65.6084C603.872 61.7684 602.421 58.867 599.52 56.9043C596.704 54.8564 592.949 53.832 588.256 53.832H568.928V77.1279ZM32.6885 57.6719H56.752L44.7197 22.5996L32.6885 57.6719ZM331 57L305.5 50.8867L280 57L305.5 36L331 57ZM196.428 43.4639H214.604C219.298 43.4638 222.924 42.3969 225.484 40.2637C228.129 38.045 229.452 34.9304 229.452 30.9199C229.452 26.8241 228.13 23.7521 225.484 21.7041C222.839 19.5708 218.999 18.5039 213.964 18.5039H196.428V43.4639ZM568.928 39.752H584.288C589.067 39.7519 592.864 38.8129 595.68 36.9355C598.581 35.0582 600.032 32.3707 600.032 28.8721C600.032 25.1174 598.624 22.3864 595.808 20.6797C593.077 18.8879 589.237 17.9922 584.288 17.9922H568.928V39.752Z"/>
</svg>
